# xmcd
#
# Track frame offsets: 
#        150
#        11660
#        25977
#        38632
#        55372
#        70942
#        82047
#        94410
#        106720
#        127037
#        143242
#        155785
#        171502
#
# Disc length: 2495 seconds
#
# Revision: 0
# Processed by: cddbd v1.5.1PL2 Copyright (c) Steve Scherf et al.
# Submitted via: ExactAudioCopy v0.95b4
#
DISCID=b709bd0d
DTITLE=Suzanne Klee - Sweet Nothin's
DYEAR=1900
DGENRE=Country
TTITLE0=Sweet Nothin's
TTITLE1=Field Of Stone
TTITLE2=It's Your Reputation Talkin'
TTITLE3=Rough And Tumble Heart
TTITLE4=Shiny Blue Dress
TTITLE5=Too Late (To Turn Back Now)
TTITLE6=I Hear You Knockin'
TTITLE7=One Door
TTITLE8=He Thinks I Still Care
TTITLE9=We Got A Love
TTITLE10=Johnny Come Lately
TTITLE11=Runaway Child
TTITLE12=Everytime Love Comes Around
EXTD=
EXTT0=
EXTT1=
EXTT2=
EXTT3=
EXTT4=
EXTT5=
EXTT6=
EXTT7=
EXTT8=
EXTT9=
EXTT10=
EXTT11=
EXTT12=
PLAYORDER=
